<?xml version="1.0" encoding="UTF-8" standalone="no"?>
<!DOCTYPE svg PUBLIC "-//W3C//DTD SVG 1.1//EN"
 "http://www.w3.org/Graphics/SVG/1.1/DTD/svg11.dtd">
<!-- Generated by graphviz version 2.43.0 (0)
 -->
<!-- Title: CFG Pages: 1 -->
<svg width="602pt" height="792pt"
 viewBox="0.00 0.00 602.00 792.00" xmlns="http://www.w3.org/2000/svg" xmlns:xlink="http://www.w3.org/1999/xlink">
<g id="graph0" class="graph" transform="scale(1 1) rotate(0) translate(4 788)">
<title>CFG</title>
<polygon fill="white" stroke="transparent" points="-4,4 -4,-788 598,-788 598,4 -4,4"/>
<!-- n2_1 -->
<g id="node1" class="node">
<title>n2_1</title>
<polygon fill="none" stroke="black" points="438,-784 283,-784 283,-748 438,-748 438,-784"/>
<text text-anchor="middle" x="360.5" y="-763.5" font-family="Courier,monospace" font-size="10.00">L2:1 &#160;TxnOpcode: V#1@L2</text>
</g>
<!-- n3_1 -->
<g id="node2" class="node">
<title>n3_1</title>
<polygon fill="none" stroke="black" points="492,-711 229,-711 229,-675 492,-675 492,-711"/>
<text text-anchor="middle" x="360.5" y="-690.5" font-family="Courier,monospace" font-size="10.00">L3:1 &#160;SingleNumericArgumentOpcode: V#1@L3</text>
</g>
<!-- n2_1&#45;&gt;n3_1 -->
<g id="edge1" class="edge">
<title>n2_1&#45;&gt;n3_1</title>
<path fill="none" stroke="black" d="M360.5,-747.81C360.5,-739.79 360.5,-730.05 360.5,-721.07"/>
<polygon fill="black" stroke="black" points="364,-721.03 360.5,-711.03 357,-721.03 364,-721.03"/>
</g>
<!-- n4_1 -->
<g id="node5" class="node">
<title>n4_1</title>
<polygon fill="none" stroke="black" points="465,-638 256,-638 256,-602 465,-602 465,-638"/>
<text text-anchor="middle" x="360.5" y="-617.5" font-family="Courier,monospace" font-size="10.00">L4:1 &#160;ZeroArgumentOpcode: V#1@L4</text>
</g>
<!-- n3_1&#45;&gt;n4_1 -->
<g id="edge11" class="edge">
<title>n3_1&#45;&gt;n4_1</title>
<path fill="none" stroke="black" d="M360.5,-674.81C360.5,-666.79 360.5,-657.05 360.5,-648.07"/>
<polygon fill="black" stroke="black" points="364,-648.03 360.5,-638.03 357,-648.03 364,-648.03"/>
</g>
<!-- n6_1 -->
<g id="node3" class="node">
<title>n6_1</title>
<polygon fill="none" stroke="black" points="358,-483 203,-483 203,-447 358,-447 358,-483"/>
<text text-anchor="middle" x="280.5" y="-462.5" font-family="Courier,monospace" font-size="10.00">L6:1 &#160;TxnOpcode: V#1@L6</text>
</g>
<!-- n7_1 -->
<g id="node4" class="node">
<title>n7_1</title>
<polygon fill="none" stroke="black" points="379,-410 116,-410 116,-374 379,-374 379,-410"/>
<text text-anchor="middle" x="247.5" y="-389.5" font-family="Courier,monospace" font-size="10.00">L7:1 &#160;SingleNumericArgumentOpcode: V#1@L7</text>
</g>
<!-- n6_1&#45;&gt;n7_1 -->
<g id="edge2" class="edge">
<title>n6_1&#45;&gt;n7_1</title>
<path fill="none" stroke="black" d="M272.51,-446.81C268.66,-438.53 263.96,-428.41 259.67,-419.19"/>
<polygon fill="black" stroke="black" points="262.8,-417.62 255.41,-410.03 256.46,-420.57 262.8,-417.62"/>
</g>
<!-- n8_1 -->
<g id="node10" class="node">
<title>n8_1</title>
<polygon fill="none" stroke="black" points="352,-337 143,-337 143,-301 352,-301 352,-337"/>
<text text-anchor="middle" x="247.5" y="-316.5" font-family="Courier,monospace" font-size="10.00">L8:1 &#160;ZeroArgumentOpcode: V#1@L8</text>
</g>
<!-- n7_1&#45;&gt;n8_1 -->
<g id="edge12" class="edge">
<title>n7_1&#45;&gt;n8_1</title>
<path fill="none" stroke="black" d="M247.5,-373.81C247.5,-365.79 247.5,-356.05 247.5,-347.07"/>
<polygon fill="black" stroke="black" points="251,-347.03 247.5,-337.03 244,-347.03 251,-347.03"/>
</g>
<!-- n5_1 -->
<g id="node6" class="node">
<title>n5_1</title>
<polygon fill="none" stroke="black" points="441,-565 280,-565 280,-529 441,-529 441,-565"/>
<text text-anchor="middle" x="360.5" y="-544.5" font-family="Courier,monospace" font-size="10.00">L5:1 &#160;BzOpcode: BzOpcode</text>
</g>
<!-- n4_1&#45;&gt;n5_1 -->
<g id="edge3" class="edge">
<title>n4_1&#45;&gt;n5_1</title>
<path fill="none" stroke="black" d="M360.5,-601.81C360.5,-593.79 360.5,-584.05 360.5,-575.07"/>
<polygon fill="black" stroke="black" points="364,-575.03 360.5,-565.03 357,-575.03 364,-575.03"/>
</g>
<!-- n5_1&#45;&gt;n6_1 -->
<g id="edge7" class="edge">
<title>n5_1&#45;&gt;n6_1</title>
<path fill="none" stroke="green" d="M343.14,-528.64C331.95,-517.45 317.24,-502.74 304.89,-490.39"/>
<polygon fill="green" stroke="green" points="307.1,-487.65 297.55,-483.05 302.15,-492.6 307.1,-487.65"/>
<text text-anchor="middle" x="336.5" y="-503.8" font-family="Courier,monospace" font-size="9.00" fill="green">true</text>
</g>
<!-- n15_1 -->
<g id="node11" class="node">
<title>n15_1</title>
<polygon fill="none" stroke="black" points="550,-483 419,-483 419,-447 550,-447 550,-483"/>
<text text-anchor="middle" x="484.5" y="-462.5" font-family="Courier,monospace" font-size="10.00">L15:1 &#160;Label: Label</text>
</g>
<!-- n5_1&#45;&gt;n15_1 -->
<g id="edge8" class="edge">
<title>n5_1&#45;&gt;n15_1</title>
<path fill="none" stroke="red" d="M387.1,-528.84C405.33,-517.08 429.69,-501.36 449.49,-488.59"/>
<polygon fill="red" stroke="red" points="451.44,-491.5 457.94,-483.13 447.64,-485.61 451.44,-491.5"/>
<text text-anchor="middle" x="444" y="-503.8" font-family="Courier,monospace" font-size="9.00" fill="red">false</text>
</g>
<!-- n9_1 -->
<g id="node7" class="node">
<title>n9_1</title>
<polygon fill="none" stroke="black" points="334,-264 161,-264 161,-228 334,-228 334,-264"/>
<text text-anchor="middle" x="247.5" y="-243.5" font-family="Courier,monospace" font-size="10.00">L9:1 &#160;BnzOpcode: BnzOpcode</text>
</g>
<!-- n10_1 -->
<g id="node8" class="node">
<title>n10_1</title>
<polygon fill="none" stroke="black" points="275,-182 0,-182 0,-146 275,-146 275,-182"/>
<text text-anchor="middle" x="137.5" y="-161.5" font-family="Courier,monospace" font-size="10.00">L10:1 &#160;SingleNumericArgumentOpcode: V#1@L10</text>
</g>
<!-- n9_1&#45;&gt;n10_1 -->
<g id="edge4" class="edge">
<title>n9_1&#45;&gt;n10_1</title>
<path fill="none" stroke="red" d="M223.9,-227.84C207.95,-216.24 186.7,-200.78 169.27,-188.11"/>
<polygon fill="red" stroke="red" points="171.2,-185.18 161.06,-182.13 167.09,-190.85 171.2,-185.18"/>
<text text-anchor="middle" x="213" y="-202.8" font-family="Courier,monospace" font-size="9.00" fill="red">false</text>
</g>
<!-- n12_1 -->
<g id="node9" class="node">
<title>n12_1</title>
<polygon fill="none" stroke="black" points="429,-182 298,-182 298,-146 429,-146 429,-182"/>
<text text-anchor="middle" x="363.5" y="-161.5" font-family="Courier,monospace" font-size="10.00">L12:1 &#160;Label: Label</text>
</g>
<!-- n9_1&#45;&gt;n12_1 -->
<g id="edge5" class="edge">
<title>n9_1&#45;&gt;n12_1</title>
<path fill="none" stroke="green" d="M272.38,-227.84C289.28,-216.19 311.82,-200.64 330.25,-187.93"/>
<polygon fill="green" stroke="green" points="332.41,-190.69 338.66,-182.13 328.44,-184.93 332.41,-190.69"/>
<text text-anchor="middle" x="323.5" y="-202.8" font-family="Courier,monospace" font-size="9.00" fill="green">true</text>
</g>
<!-- n11_1 -->
<g id="node14" class="node">
<title>n11_1</title>
<polygon fill="none" stroke="black" points="224,-109 9,-109 9,-73 224,-73 224,-109"/>
<text text-anchor="middle" x="116.5" y="-88.5" font-family="Courier,monospace" font-size="10.00">L11:1 &#160;ZeroArgumentOpcode: return</text>
</g>
<!-- n10_1&#45;&gt;n11_1 -->
<g id="edge13" class="edge">
<title>n10_1&#45;&gt;n11_1</title>
<path fill="none" stroke="black" d="M132.42,-145.81C130.02,-137.7 127.1,-127.84 124.42,-118.78"/>
<polygon fill="black" stroke="black" points="127.73,-117.63 121.54,-109.03 121.02,-119.61 127.73,-117.63"/>
</g>
<!-- n13_1 -->
<g id="node12" class="node">
<title>n13_1</title>
<polygon fill="none" stroke="black" points="517,-109 242,-109 242,-73 517,-73 517,-109"/>
<text text-anchor="middle" x="379.5" y="-88.5" font-family="Courier,monospace" font-size="10.00">L13:1 &#160;SingleNumericArgumentOpcode: V#1@L13</text>
</g>
<!-- n12_1&#45;&gt;n13_1 -->
<g id="edge9" class="edge">
<title>n12_1&#45;&gt;n13_1</title>
<path fill="none" stroke="black" d="M367.37,-145.81C369.18,-137.79 371.38,-128.05 373.4,-119.07"/>
<polygon fill="black" stroke="black" points="376.88,-119.55 375.66,-109.03 370.05,-118.01 376.88,-119.55"/>
</g>
<!-- n8_1&#45;&gt;n9_1 -->
<g id="edge6" class="edge">
<title>n8_1&#45;&gt;n9_1</title>
<path fill="none" stroke="black" d="M247.5,-300.81C247.5,-292.79 247.5,-283.05 247.5,-274.07"/>
<polygon fill="black" stroke="black" points="251,-274.03 247.5,-264.03 244,-274.03 251,-274.03"/>
</g>
<!-- n16_1 -->
<g id="node13" class="node">
<title>n16_1</title>
<polygon fill="none" stroke="black" points="594,-410 397,-410 397,-374 594,-374 594,-410"/>
<text text-anchor="middle" x="495.5" y="-389.5" font-family="Courier,monospace" font-size="10.00">L16:1 &#160;ZeroArgumentOpcode: err</text>
</g>
<!-- n15_1&#45;&gt;n16_1 -->
<g id="edge10" class="edge">
<title>n15_1&#45;&gt;n16_1</title>
<path fill="none" stroke="black" d="M487.16,-446.81C488.41,-438.79 489.92,-429.05 491.31,-420.07"/>
<polygon fill="black" stroke="black" points="494.79,-420.45 492.86,-410.03 487.87,-419.38 494.79,-420.45"/>
</g>
<!-- n14_1 -->
<g id="node15" class="node">
<title>n14_1</title>
<polygon fill="none" stroke="black" points="487,-36 272,-36 272,0 487,0 487,-36"/>
<text text-anchor="middle" x="379.5" y="-15.5" font-family="Courier,monospace" font-size="10.00">L14:1 &#160;ZeroArgumentOpcode: return</text>
</g>
<!-- n13_1&#45;&gt;n14_1 -->
<g id="edge14" class="edge">
<title>n13_1&#45;&gt;n14_1</title>
<path fill="none" stroke="black" d="M379.5,-72.81C379.5,-64.79 379.5,-55.05 379.5,-46.07"/>
<polygon fill="black" stroke="black" points="383,-46.03 379.5,-36.03 376,-46.03 383,-46.03"/>
</g>
</g>
</svg>
